<svg width="800" height="960" viewBox="0 0 800 960" fill="none" xmlns="http://www.w3.org/2000/svg">
  <rect width="800" height="960" rx="48" fill="#08101F"/>
  <rect width="800" height="960" rx="48" fill="url(#bg)"/>
  <circle cx="610" cy="164" r="148" fill="#E44C44" fill-opacity=".16"/>
  <circle cx="176" cy="796" r="196" fill="#2E636B" fill-opacity=".16"/>
  <path d="M92 164H708" stroke="#FFFFFF" stroke-opacity=".08" stroke-width="2"/>
  <path d="M92 198H510" stroke="#FFFFFF" stroke-opacity=".05" stroke-width="2"/>
  <circle cx="400" cy="352" r="108" fill="#EFC4AA"/>
  <path d="M282 346C282 270 338 214 400 214C462 214 518 270 518 346V402H282V346Z" fill="#433339"/>
  <path d="M252 774C252 628 321 548 400 548C479 548 548 628 548 774V836H252V774Z" fill="#E6EDF1"/>
  <path d="M220 824C220 686 300 604 400 604C500 604 580 686 580 824V874H220V824Z" fill="#B8695C"/>
  <path d="M330 404C342 456 366 492 400 492C434 492 458 456 470 404H330Z" fill="#E2B596"/>
  <rect x="84" y="84" width="190" height="42" rx="21" fill="#FFFFFF" fill-opacity=".06" stroke="#FFFFFF" stroke-opacity=".08"/>
  <text x="179" y="111" fill="#FFB0AA" font-family="Arial, sans-serif" font-size="18" text-anchor="middle" letter-spacing="3">SANTIAGO</text>
  <text x="84" y="902" fill="white" font-family="Arial, sans-serif" font-size="34" font-weight="700">Sofía Navarro</text>
  <text x="84" y="936" fill="#B8C1D5" font-family="Arial, sans-serif" font-size="20">Client Success</text>
  <defs>
    <linearGradient id="bg" x1="102" y1="74" x2="694" y2="898" gradientUnits="userSpaceOnUse">
      <stop stop-color="#132137"/>
      <stop offset=".56" stop-color="#091120"/>
      <stop offset="1" stop-color="#23161D"/>
    </linearGradient>
  </defs>
</svg>
