<svg xmlns="http://www.w3.org/2000/svg" xmlns:xlink="http://www.w3.org/1999/xlink" width="192" zoomAndPan="magnify" viewBox="0 0 144 36.000001" height="48" preserveAspectRatio="xMidYMid meet" version="1.0"><defs><g/></defs><g fill="#ff751f" fill-opacity="1"><g transform="translate(0.699017, 33.567569)"><g><path d="M 31.03125 -15.046875 C 31.03125 -10.078125 29.796875 -6.257812 27.328125 -3.59375 C 24.867188 -0.925781 21.335938 0.40625 16.734375 0.40625 C 12.140625 0.40625 8.609375 -0.925781 6.140625 -3.59375 C 3.671875 -6.257812 2.4375 -10.09375 2.4375 -15.09375 C 2.4375 -20.09375 3.671875 -23.910156 6.140625 -26.546875 C 8.617188 -29.179688 12.164062 -30.5 16.78125 -30.5 C 21.394531 -30.5 24.921875 -29.171875 27.359375 -26.515625 C 29.804688 -23.859375 31.03125 -20.035156 31.03125 -15.046875 Z M 9.125 -15.046875 C 9.125 -11.691406 9.757812 -9.164062 11.03125 -7.46875 C 12.300781 -5.769531 14.203125 -4.921875 16.734375 -4.921875 C 21.816406 -4.921875 24.359375 -8.296875 24.359375 -15.046875 C 24.359375 -21.816406 21.832031 -25.203125 16.78125 -25.203125 C 14.25 -25.203125 12.335938 -24.347656 11.046875 -22.640625 C 9.765625 -20.941406 9.125 -18.410156 9.125 -15.046875 Z M 9.125 -15.046875 "/></g></g></g><g fill="#ff751f" fill-opacity="1"><g transform="translate(29.329885, 33.567569)"><g><path d="M 24.484375 0 L 18.21875 0 L 18.21875 -13.40625 C 18.21875 -16.71875 16.984375 -18.375 14.515625 -18.375 C 12.765625 -18.375 11.5 -17.78125 10.71875 -16.59375 C 9.9375 -15.40625 9.546875 -13.472656 9.546875 -10.796875 L 9.546875 0 L 3.28125 0 L 3.28125 -31.953125 L 9.546875 -31.953125 L 9.546875 -25.453125 C 9.546875 -24.941406 9.5 -23.75 9.40625 -21.875 L 9.265625 -20.03125 L 9.59375 -20.03125 C 10.988281 -22.269531 13.207031 -23.390625 16.25 -23.390625 C 18.945312 -23.390625 20.992188 -22.660156 22.390625 -21.203125 C 23.785156 -19.753906 24.484375 -17.675781 24.484375 -14.96875 Z M 24.484375 0 "/></g></g></g><g fill="#ff751f" fill-opacity="1"><g transform="translate(52.129507, 33.567569)"><g><path d="M 8.546875 -9.96875 L 3.53125 -9.96875 L 2.484375 -30.03125 L 9.59375 -30.03125 Z M 2.40625 -2.9375 C 2.40625 -4.082031 2.710938 -4.945312 3.328125 -5.53125 C 3.941406 -6.125 4.835938 -6.421875 6.015625 -6.421875 C 7.148438 -6.421875 8.03125 -6.117188 8.65625 -5.515625 C 9.28125 -4.921875 9.59375 -4.0625 9.59375 -2.9375 C 9.59375 -1.851562 9.273438 -1 8.640625 -0.375 C 8.015625 0.238281 7.140625 0.546875 6.015625 0.546875 C 4.867188 0.546875 3.976562 0.242188 3.34375 -0.359375 C 2.71875 -0.960938 2.40625 -1.820312 2.40625 -2.9375 Z M 2.40625 -2.9375 "/></g></g></g><g fill="#ffffff" fill-opacity="1"><g transform="translate(65.943601, 22.621623)"><g><path d="M 6.03125 -8.78125 C 7.050781 -8.78125 7.847656 -8.382812 8.421875 -7.59375 C 8.992188 -6.800781 9.28125 -5.710938 9.28125 -4.328125 C 9.28125 -2.898438 8.984375 -1.796875 8.390625 -1.015625 C 7.796875 -0.234375 6.988281 0.15625 5.96875 0.15625 C 4.957031 0.15625 4.164062 -0.210938 3.59375 -0.953125 L 3.421875 -0.953125 L 3.03125 0 L 1.234375 0 L 1.234375 -12 L 3.59375 -12 L 3.59375 -9.203125 C 3.59375 -8.847656 3.5625 -8.28125 3.5 -7.5 L 3.59375 -7.5 C 4.132812 -8.351562 4.945312 -8.78125 6.03125 -8.78125 Z M 5.28125 -6.90625 C 4.695312 -6.90625 4.269531 -6.722656 4 -6.359375 C 3.738281 -6.003906 3.601562 -5.414062 3.59375 -4.59375 L 3.59375 -4.34375 C 3.59375 -3.414062 3.726562 -2.75 4 -2.34375 C 4.269531 -1.945312 4.707031 -1.75 5.3125 -1.75 C 5.789062 -1.75 6.171875 -1.96875 6.453125 -2.40625 C 6.742188 -2.851562 6.890625 -3.503906 6.890625 -4.359375 C 6.890625 -5.203125 6.742188 -5.835938 6.453125 -6.265625 C 6.171875 -6.691406 5.78125 -6.90625 5.28125 -6.90625 Z M 5.28125 -6.90625 "/></g></g></g><g fill="#ffffff" fill-opacity="1"><g transform="translate(74.113454, 22.621623)"><g><path d="M 0 -8.625 L 2.578125 -8.625 L 4.203125 -3.765625 C 4.335938 -3.347656 4.429688 -2.851562 4.484375 -2.28125 L 4.53125 -2.28125 C 4.59375 -2.800781 4.703125 -3.296875 4.859375 -3.765625 L 6.46875 -8.625 L 8.984375 -8.625 L 5.34375 1.109375 C 5.007812 2.003906 4.53125 2.675781 3.90625 3.125 C 3.289062 3.570312 2.566406 3.796875 1.734375 3.796875 C 1.328125 3.796875 0.929688 3.75 0.546875 3.65625 L 0.546875 1.796875 C 0.828125 1.859375 1.132812 1.890625 1.46875 1.890625 C 1.882812 1.890625 2.25 1.765625 2.5625 1.515625 C 2.875 1.265625 3.113281 0.878906 3.28125 0.359375 L 3.421875 -0.0625 Z M 0 -8.625 "/></g></g></g><g fill="#ffffff" fill-opacity="1"><g transform="translate(81.273916, 22.621623)"><g/></g></g><g fill="#ffffff" fill-opacity="1"><g transform="translate(83.556938, 22.621623)"><g><path d="M 7.234375 0 L 0.421875 0 L 0.421875 -1.390625 L 4.421875 -6.828125 L 0.65625 -6.828125 L 0.65625 -8.625 L 7.09375 -8.625 L 7.09375 -7.09375 L 3.203125 -1.796875 L 7.234375 -1.796875 Z M 7.234375 0 "/></g></g></g><g fill="#ffffff" fill-opacity="1"><g transform="translate(89.438324, 22.621623)"><g><path d="M 4.8125 -7.109375 C 4.3125 -7.109375 3.914062 -6.945312 3.625 -6.625 C 3.34375 -6.3125 3.179688 -5.867188 3.140625 -5.296875 L 6.453125 -5.296875 C 6.441406 -5.867188 6.285156 -6.3125 5.984375 -6.625 C 5.691406 -6.945312 5.300781 -7.109375 4.8125 -7.109375 Z M 5.140625 0.15625 C 3.742188 0.15625 2.65625 -0.222656 1.875 -0.984375 C 1.09375 -1.753906 0.703125 -2.84375 0.703125 -4.25 C 0.703125 -5.695312 1.0625 -6.8125 1.78125 -7.59375 C 2.507812 -8.382812 3.515625 -8.78125 4.796875 -8.78125 C 6.015625 -8.78125 6.960938 -8.429688 7.640625 -7.734375 C 8.316406 -7.046875 8.65625 -6.085938 8.65625 -4.859375 L 8.65625 -3.71875 L 3.09375 -3.71875 C 3.113281 -3.050781 3.3125 -2.53125 3.6875 -2.15625 C 4.0625 -1.78125 4.582031 -1.59375 5.25 -1.59375 C 5.769531 -1.59375 6.257812 -1.644531 6.71875 -1.75 C 7.175781 -1.863281 7.660156 -2.039062 8.171875 -2.28125 L 8.171875 -0.453125 C 7.753906 -0.242188 7.3125 -0.09375 6.84375 0 C 6.375 0.101562 5.804688 0.15625 5.140625 0.15625 Z M 5.140625 0.15625 "/></g></g></g><g fill="#ffffff" fill-opacity="1"><g transform="translate(96.945523, 22.621623)"><g><path d="M 8.734375 -8.625 L 8.734375 -7.421875 L 7.390625 -7.078125 C 7.640625 -6.691406 7.765625 -6.257812 7.765625 -5.78125 C 7.765625 -4.851562 7.441406 -4.128906 6.796875 -3.609375 C 6.148438 -3.097656 5.253906 -2.84375 4.109375 -2.84375 L 3.671875 -2.875 L 3.328125 -2.90625 C 3.085938 -2.71875 2.96875 -2.515625 2.96875 -2.296875 C 2.96875 -1.953125 3.398438 -1.78125 4.265625 -1.78125 L 5.734375 -1.78125 C 6.679688 -1.78125 7.398438 -1.578125 7.890625 -1.171875 C 8.390625 -0.765625 8.640625 -0.171875 8.640625 0.609375 C 8.640625 1.617188 8.21875 2.398438 7.375 2.953125 C 6.53125 3.515625 5.320312 3.796875 3.75 3.796875 C 2.550781 3.796875 1.632812 3.582031 1 3.15625 C 0.363281 2.738281 0.046875 2.15625 0.046875 1.40625 C 0.046875 0.882812 0.207031 0.445312 0.53125 0.09375 C 0.851562 -0.25 1.328125 -0.492188 1.953125 -0.640625 C 1.710938 -0.742188 1.503906 -0.910156 1.328125 -1.140625 C 1.148438 -1.378906 1.0625 -1.628906 1.0625 -1.890625 C 1.0625 -2.222656 1.15625 -2.5 1.34375 -2.71875 C 1.53125 -2.9375 1.804688 -3.148438 2.171875 -3.359375 C 1.710938 -3.554688 1.347656 -3.867188 1.078125 -4.296875 C 0.816406 -4.734375 0.6875 -5.242188 0.6875 -5.828125 C 0.6875 -6.773438 0.992188 -7.503906 1.609375 -8.015625 C 2.222656 -8.523438 3.097656 -8.78125 4.234375 -8.78125 C 4.472656 -8.78125 4.757812 -8.757812 5.09375 -8.71875 C 5.425781 -8.675781 5.640625 -8.644531 5.734375 -8.625 Z M 2.078125 1.21875 C 2.078125 1.539062 2.234375 1.796875 2.546875 1.984375 C 2.859375 2.171875 3.296875 2.265625 3.859375 2.265625 C 4.703125 2.265625 5.363281 2.144531 5.84375 1.90625 C 6.320312 1.675781 6.5625 1.363281 6.5625 0.96875 C 6.5625 0.644531 6.414062 0.421875 6.125 0.296875 C 5.84375 0.171875 5.410156 0.109375 4.828125 0.109375 L 3.609375 0.109375 C 3.171875 0.109375 2.804688 0.207031 2.515625 0.40625 C 2.222656 0.613281 2.078125 0.882812 2.078125 1.21875 Z M 2.9375 -5.796875 C 2.9375 -5.328125 3.039062 -4.957031 3.25 -4.6875 C 3.46875 -4.414062 3.796875 -4.28125 4.234375 -4.28125 C 4.671875 -4.28125 4.992188 -4.414062 5.203125 -4.6875 C 5.410156 -4.957031 5.515625 -5.328125 5.515625 -5.796875 C 5.515625 -6.835938 5.085938 -7.359375 4.234375 -7.359375 C 3.367188 -7.359375 2.9375 -6.835938 2.9375 -5.796875 Z M 2.9375 -5.796875 "/></g></g></g><g fill="#ffffff" fill-opacity="1"><g transform="translate(104.044343, 22.621623)"><g><path d="M 4.8125 -7.109375 C 4.3125 -7.109375 3.914062 -6.945312 3.625 -6.625 C 3.34375 -6.3125 3.179688 -5.867188 3.140625 -5.296875 L 6.453125 -5.296875 C 6.441406 -5.867188 6.285156 -6.3125 5.984375 -6.625 C 5.691406 -6.945312 5.300781 -7.109375 4.8125 -7.109375 Z M 5.140625 0.15625 C 3.742188 0.15625 2.65625 -0.222656 1.875 -0.984375 C 1.09375 -1.753906 0.703125 -2.84375 0.703125 -4.25 C 0.703125 -5.695312 1.0625 -6.8125 1.78125 -7.59375 C 2.507812 -8.382812 3.515625 -8.78125 4.796875 -8.78125 C 6.015625 -8.78125 6.960938 -8.429688 7.640625 -7.734375 C 8.316406 -7.046875 8.65625 -6.085938 8.65625 -4.859375 L 8.65625 -3.71875 L 3.09375 -3.71875 C 3.113281 -3.050781 3.3125 -2.53125 3.6875 -2.15625 C 4.0625 -1.78125 4.582031 -1.59375 5.25 -1.59375 C 5.769531 -1.59375 6.257812 -1.644531 6.71875 -1.75 C 7.175781 -1.863281 7.660156 -2.039062 8.171875 -2.28125 L 8.171875 -0.453125 C 7.753906 -0.242188 7.3125 -0.09375 6.84375 0 C 6.375 0.101562 5.804688 0.15625 5.140625 0.15625 Z M 5.140625 0.15625 "/></g></g></g><g fill="#ffffff" fill-opacity="1"><g transform="translate(111.551542, 22.621623)"><g><path d="M 9.1875 0 L 6.84375 0 L 6.84375 -5.03125 C 6.84375 -5.65625 6.726562 -6.125 6.5 -6.4375 C 6.28125 -6.75 5.929688 -6.90625 5.453125 -6.90625 C 4.796875 -6.90625 4.320312 -6.679688 4.03125 -6.234375 C 3.738281 -5.796875 3.59375 -5.070312 3.59375 -4.0625 L 3.59375 0 L 1.234375 0 L 1.234375 -8.625 L 3.03125 -8.625 L 3.34375 -7.515625 L 3.484375 -7.515625 C 3.742188 -7.929688 4.101562 -8.242188 4.5625 -8.453125 C 5.019531 -8.671875 5.539062 -8.78125 6.125 -8.78125 C 7.132812 -8.78125 7.894531 -8.507812 8.40625 -7.96875 C 8.925781 -7.425781 9.1875 -6.644531 9.1875 -5.625 Z M 9.1875 0 "/></g></g></g><g fill="#ffffff" fill-opacity="1"><g transform="translate(120.106658, 22.621623)"><g><path d="M 3.96875 0.15625 C 2.945312 0.15625 2.144531 -0.234375 1.5625 -1.015625 C 0.988281 -1.804688 0.703125 -2.898438 0.703125 -4.296875 C 0.703125 -5.710938 0.992188 -6.8125 1.578125 -7.59375 C 2.171875 -8.382812 2.988281 -8.78125 4.03125 -8.78125 C 5.113281 -8.78125 5.941406 -8.359375 6.515625 -7.515625 L 6.59375 -7.515625 C 6.46875 -8.160156 6.40625 -8.734375 6.40625 -9.234375 L 6.40625 -12 L 8.765625 -12 L 8.765625 0 L 6.96875 0 L 6.515625 -1.125 L 6.40625 -1.125 C 5.875 -0.269531 5.0625 0.15625 3.96875 0.15625 Z M 4.796875 -1.71875 C 5.390625 -1.71875 5.828125 -1.890625 6.109375 -2.234375 C 6.390625 -2.585938 6.546875 -3.1875 6.578125 -4.03125 L 6.578125 -4.28125 C 6.578125 -5.207031 6.429688 -5.867188 6.140625 -6.265625 C 5.859375 -6.671875 5.394531 -6.875 4.75 -6.875 C 4.226562 -6.875 3.820312 -6.648438 3.53125 -6.203125 C 3.238281 -5.753906 3.09375 -5.109375 3.09375 -4.265625 C 3.09375 -3.421875 3.238281 -2.785156 3.53125 -2.359375 C 3.820312 -1.929688 4.242188 -1.71875 4.796875 -1.71875 Z M 4.796875 -1.71875 "/></g></g></g><g fill="#ffffff" fill-opacity="1"><g transform="translate(128.276511, 22.621623)"><g><path d="M 1.140625 -10.859375 C 1.140625 -11.617188 1.566406 -12 2.421875 -12 C 3.265625 -12 3.6875 -11.617188 3.6875 -10.859375 C 3.6875 -10.492188 3.578125 -10.207031 3.359375 -10 C 3.148438 -9.800781 2.835938 -9.703125 2.421875 -9.703125 C 1.566406 -9.703125 1.140625 -10.085938 1.140625 -10.859375 Z M 3.59375 0 L 1.234375 0 L 1.234375 -8.625 L 3.59375 -8.625 Z M 3.59375 0 "/></g></g></g><g fill="#ffffff" fill-opacity="1"><g transform="translate(131.276124, 22.621623)"><g><path d="M 6.703125 0 L 6.25 -1.171875 L 6.1875 -1.171875 C 5.789062 -0.671875 5.382812 -0.320312 4.96875 -0.125 C 4.550781 0.0625 4.003906 0.15625 3.328125 0.15625 C 2.503906 0.15625 1.851562 -0.078125 1.375 -0.546875 C 0.894531 -1.023438 0.65625 -1.703125 0.65625 -2.578125 C 0.65625 -3.492188 0.972656 -4.164062 1.609375 -4.59375 C 2.253906 -5.03125 3.222656 -5.273438 4.515625 -5.328125 L 6.015625 -5.375 L 6.015625 -5.75 C 6.015625 -6.625 5.566406 -7.0625 4.671875 -7.0625 C 3.984375 -7.0625 3.175781 -6.851562 2.25 -6.4375 L 1.46875 -8.015625 C 2.457031 -8.535156 3.554688 -8.796875 4.765625 -8.796875 C 5.921875 -8.796875 6.804688 -8.546875 7.421875 -8.046875 C 8.046875 -7.546875 8.359375 -6.78125 8.359375 -5.75 L 8.359375 0 Z M 6.015625 -4 L 5.109375 -3.96875 C 4.421875 -3.945312 3.910156 -3.820312 3.578125 -3.59375 C 3.242188 -3.363281 3.078125 -3.019531 3.078125 -2.5625 C 3.078125 -1.894531 3.457031 -1.5625 4.21875 -1.5625 C 4.757812 -1.5625 5.191406 -1.71875 5.515625 -2.03125 C 5.847656 -2.34375 6.015625 -2.757812 6.015625 -3.28125 Z M 6.015625 -4 "/></g></g></g></svg>